<svg height="512pt" viewBox="0 -75 512 512" width="512pt" xmlns="http://www.w3.org/2000/svg"><path d="m192.578125 106.890625h102.175781v-18.890625h42.578125v-88h-187.332031v88h42.578125zm0 0"/><path d="m382.675781 136.890625h-160.097656v224.320313h203.570313v-176.136719l-15.976563-19.804688h-27.496094zm0 0"/><path d="m192.578125 136.890625h-49.378906v182.75h.828125l37.65625 41.570313h10.894531zm0 0"/><path d="m482 205.667969v25.269531h-25.851562v105.960938h25.851562v24.101562h30v-155.332031zm0 0"/><path d="m113.199219 319.640625v-151.449219h-55.386719v60.722656h-27.8125v-34.125h-30v98.25h30v-34.125h27.8125v60.726563zm0 0"/></svg>