<svg height="512pt" viewBox="0 0 512.001 512" width="512pt" xmlns="http://www.w3.org/2000/svg"><path d="m470.375 400.640625v-289.507813c23.960938-6.574218 41.625-28.535156 41.625-54.554687 0-31.195313-25.378906-56.578125-56.578125-56.578125-31.195313 0-56.578125 25.382812-56.578125 56.578125 0 25.988281 17.625 47.929687 41.542969 54.53125v129.785156h-103.257813v-129.773437c23.941406-6.585938 41.585938-28.539063 41.585938-54.542969 0-31.195313-25.378906-56.578125-56.578125-56.578125-31.195313 0-56.578125 25.382812-56.578125 56.578125 0 26.003906 17.644531 47.957031 41.585937 54.542969v129.773437h-103.257812v-129.773437c23.941406-6.585938 41.585937-28.539063 41.585937-54.542969 0-31.195313-25.378906-56.578125-56.578125-56.578125-31.195312 0-56.578125 25.382812-56.578125 56.578125 0 26.003906 17.644532 47.957031 41.585938 54.542969v129.773437h-99.964844v-130.476562c22.726562-7.34375 39.214844-28.699219 39.214844-53.839844 0-31.195313-25.378906-56.578125-56.578125-56.578125-31.195313 0-56.574219 25.378906-56.574219 56.578125 0 26.855469 18.816406 49.382813 43.949219 55.136719v159.167968h129.953125v129.769532c-23.941406 6.589844-41.585938 28.539062-41.585938 54.546875 0 31.195312 25.382813 56.574219 56.578125 56.574219 31.199219 0 56.578125-25.378907 56.578125-56.574219 0-26.007813-17.644531-47.957031-41.585937-54.546875v-129.769532h103.257812v129.769532c-23.941406 6.589844-41.582031 28.539062-41.582031 54.546875 0 31.195312 25.378906 56.574219 56.574219 56.574219 31.199219 0 56.578125-25.378907 56.578125-56.574219 0-26.007813-17.640625-47.957031-41.582032-54.546875v-129.769532h103.253907v129.78125c-23.917969 6.605469-41.539063 28.542969-41.539063 54.535157 0 31.195312 25.378906 56.574219 56.574219 56.574219 31.199219 0 56.578125-25.378907 56.578125-56.574219 0-26.023438-17.664062-47.984375-41.625-54.558594zm0 0"/></svg>